:SAMPLES-PER-SECOND 30
:FRAME-RANGE 1-4244
:FULLY-SPECIFIED
:DEGREES
3449
root  40.0735 38.8944 -5.17001 176.184 23.0556 -178.324
RightUpLeg  -11.9243 -8.13342 -6.22957
RightLeg  10.8429 4.91811 1.47996
RightFoot  3.7696 -1.71073 13.0419
RightToes  -3.31784e-009 0 -3.6325e-017
Spine  12.1579 0.281805 6.96641
Spine1  -1.18048 2.32621 -6.586
HEad  -13.9002 57.636 -25.7512
LeftShoulder1  0.979086 0.954332 -32.3336
LeftArm  14.922 4.86119 -30.4974
LeftForeArm  9.03082 -31.9597 -6.52878
LeftHand  0.168591 -2.49508 -2.28918
RightShoulder  5.96765 8.252 44.3735
RightArm  5.85053 -4.83285 14.9923
RightForeArm  21.8946 -1.28022 16.3527
RightHand  0.537019 4.37773 6.08766
LeftUpLeg  4.97035 -4.29003 -1.41034
LeftLeg  24.6085 -3.51768 -1.42431
LeftFoot  -18.9254 0.218898 1.58857
LeftToes  1.0277e-010 -6.71454e-011 3.04227e-011
3450
root  40.8584 38.7478 -5.73671 176.398 20.7218 -177.422
RightUpLeg  -12.3005 -10.8002 -5.40018
RightLeg  15.6973 5.3508 2.48115
RightFoot  0.233457 -1.27541 12.5529
RightToes  -3.31784e-009 0 -3.6325e-017
Spine  12.5843 0.0725336 8.88961
Spine1  -0.875059 2.43186 -6.02786
HEad  -12.9448 57.2457 -25.8067
LeftShoulder1  0.987768 0.956893 -32.7119
LeftArm  15.0261 5.64677 -30.7694
LeftForeArm  6.05306 -29.1632 -6.0006
LeftHand  0.116339 -2.25494 -1.58599
RightShoulder  6.23168 8.82143 44.1838
RightArm  2.85727 -3.92467 15.0103
RightForeArm  22.1708 -3.66051 16.2528
RightHand  0.511774 4.0719 5.99743
LeftUpLeg  1.29177 -4.65561 0.716772
LeftLeg  33.7256 -3.20404 -1.94713
LeftFoot  -17.605 -0.157408 -4.80263
LeftToes  1.0277e-010 -6.71454e-011 3.04227e-011
3451
root  41.6428 38.7202 -6.26806 176.923 17.0843 -176.437
RightUpLeg  -11.5007 -12.0953 -4.6079
RightLeg  17.8011 3.16842 2.69407
RightFoot  -2.37835 -0.921715 11.516
RightToes  -3.31784e-009 0 -3.6325e-017
Spine  12.3401 -0.144552 9.96069
Spine1  -0.548804 2.20619 -4.2665
HEad  -11.1378 56.0032 -24.2181
LeftShoulder1  1.02253 0.834414 -32.2379
LeftArm  18.5258 6.12796 -32.2648
LeftForeArm  0.210298 -25.0487 -5.35231
LeftHand  0.0481359 -1.3757 -0.701344
RightShoulder  6.29673 8.94347 44.2076
RightArm  0.806924 -3.70777 14.9167
RightForeArm  21.7003 -4.3329 16.0271
RightHand  0.485894 3.71723 5.92829
LeftUpLeg  -4.07164 -4.34605 3.39477
LeftLeg  42.9009 -2.52213 -2.12097
LeftFoot  -11.2023 0.0803838 -11.0599
LeftToes  1.0277e-010 -6.71454e-011 3.04227e-011
3452
root  42.3763 38.7422 -6.80432 177.194 13.4609 -175.864
RightUpLeg  -10.2826 -12.8054 -4.10701
RightLeg  18.9678 0.357412 2.41422
RightFoot  -4.65981 -0.690504 11.2494
RightToes  -3.31784e-009 0 -3.6325e-017
Spine  12.5297 -0.288761 10.8696
Spine1  -1.17927 2.10375 -3.53552
HEad  -8.75522 54.2422 -21.568
LeftShoulder1  1.0326 0.77539 -31.779
LeftArm  22.8628 6.57998 -33.0416
LeftForeArm  -4.94331 -21.8114 -5.95902
LeftHand  0.0171434 -0.389902 -0.304163
RightShoulder  6.26259 8.79852 44.5003
RightArm  2.2714 -3.80341 14.6244
RightForeArm  19.7619 -3.2088 16.3003
RightHand  0.445426 3.51293 5.55362
LeftUpLeg  -9.47935 -3.68509 5.30838
LeftLeg  50.0465 -1.35237 -1.29566
LeftFoot  -2.67045 0.94966 -12.2795
LeftToes  1.0277e-010 -6.71454e-011 3.04227e-011
3453
root  43.0018 38.7509 -7.36598 177.341 10.6635 -175.562
RightUpLeg  -9.0423 -13.1625 -3.94289
RightLeg  19.8082 -1.72131 2.45954
RightFoot  -6.7079 -0.503912 11.2893
RightToes  -3.31784e-009 0 -3.6325e-017
Spine  12.6634 -0.229103 11.7904
Spine1  -1.69045 2.26407 -3.25002
HEad  -7.31718 52.5572 -19.7082
LeftShoulder1  1.0232 0.806129 -31.8617
LeftArm  23.346 7.36996 -32.5292
LeftForeArm  -5.23103 -19.3752 -8.14163
LeftHand  0.0656193 -0.378536 -1.2892
RightShoulder  6.22925 8.75213 44.428
RightArm  3.86658 -3.76281 14.7375
RightForeArm  19.4876 -1.78403 16.3654
RightHand  0.428043 3.60743 5.26457
LeftUpLeg  -13.6095 -1.77379 6.20775
LeftLeg  53.9655 0.682613 1.48153
LeftFoot  -0.153356 0.832961 -8.48564
LeftToes  1.0277e-010 -6.71454e-011 3.04227e-011
3454
root  43.5982 38.9619 -7.95743 177.36 8.39362 -176.165
RightUpLeg  -6.90605 -12.7623 -4.52478
RightLeg  18.4837 -4.20893 2.44777
RightFoot  -7.48628 -0.430054 11.2267
RightToes  -3.31784e-009 0 -3.6325e-017
Spine  12.5834 0.0898584 11.555
Spine1  -1.9736 2.53714 -3.78888
HEad  -7.03557 50.9504 -18.8017
LeftShoulder1  1.02834 0.809049 -32.0934
LeftArm  21.3048 8.36863 -31.4613
LeftForeArm  -2.30155 -16.4398 -10.8114
LeftHand  0.161195 -0.865332 -2.92212
RightShoulder  6.28289 8.89064 44.3033
RightArm  5.23025 -3.57624 15.0939
RightForeArm  19.483 -0.296958 16.2859
RightHand  0.421932 3.85676 5.0281
LeftUpLeg  -16.5462 1.18844 5.55139
LeftLeg  54.6941 2.50273 4.27781
LeftFoot  -2.30001 0.522931 -6.43617
LeftToes  1.0277e-010 -6.71454e-011 3.04227e-011
3455
root  44.1269 39.203 -8.5582 177.487 6.56137 -177.001
RightUpLeg  -4.70938 -12.1683 -5.2013
RightLeg  16.5077 -6.35442 2.52352
RightFoot  -7.87502 -0.394753 11.2363
RightToes  -3.31784e-009 0 -3.6325e-017
Spine  12.261 0.523674 11.0982
Spine1  -2.04826 2.90169 -4.69257
HEad  -7.36292 49.5525 -18.6316
LeftShoulder1  1.01596 0.840389 -32.0771
LeftArm  18.9137 9.66836 -30.6439
LeftForeArm  0.507869 -13.303 -13.272
LeftHand  0.20489 -0.654364 -3.8921
RightShoulder  6.41556 9.19201 44.1562
RightArm  6.60278 -3.18212 15.4693
RightForeArm  18.6345 1.12317 16.1881
RightHand  0.419177 3.90177 4.9662
LeftUpLeg  -18.4496 5.11861 4.11135
LeftLeg  52.2376 2.93017 4.50962
LeftFoot  -4.03715 0.381748 -5.59953
LeftToes  1.0277e-010 -6.71454e-011 3.04227e-011
3456
root  44.5888 39.4795 -9.18196 177.717 5.06686 -177.877
RightUpLeg  -2.16737 -11.6716 -5.80362
RightLeg  13.4589 -8.16693 2.76637
RightFoot  -7.62533 -0.412247 11.0717
RightToes  -3.31784e-009 0 -3.6325e-017
Spine  11.5592 1.03864 10.558
Spine1  -1.7217 3.35194 -5.81613
HEad  -7.51826 48.3916 -18.801
LeftShoulder1  0.995978 0.893893 -32.0927
LeftArm  15.9149 11.1263 -29.9657
LeftForeArm  3.27855 -9.92693 -15.31
LeftHand  0.203955 -0.188003 -4.25692
RightShoulder  6.54332 9.53155 43.8451
RightArm  8.11062 -2.83574 15.9385
RightForeArm  17.0787 2.85246 15.9627
RightHand  0.447341 4.00965 5.24842
LeftUpLeg  -19.3134 9.75594 2.03865
LeftLeg  46.9625 2.72729 3.53855
LeftFoot  -5.87873 0.255708 -4.61985
LeftToes  1.0277e-010 -6.71454e-011 3.04227e-011
3457
root  44.9737 39.7076 -9.79143 178.161 3.04663 -178.596
RightUpLeg  0.320479 -11.7638 -6.33795
RightLeg  10.2205 -9.96954 3.24853
RightFoot  -7.29853 -0.439674 11.0141
RightToes  -3.31784e-009 0 -3.6325e-017
Spine  10.8312 1.31698 9.7437
Spine1  -1.64521 3.44967 -6.3993
HEad  -7.42687 47.4595 -19.0831
LeftShoulder1  0.974582 0.961827 -32.2696
LeftArm  13.8736 12.9846 -29.1681
LeftForeArm  4.1361 -7.50119 -16.4853
LeftHand  0.205406 0.253767 -4.79738
RightShoulder  6.58003 9.70306 43.4994
RightArm  10.3103 -2.57385 16.3981
RightForeArm  15.0827 4.92952 15.5803
RightHand  0.427172 3.99241 5.01045
LeftUpLeg  -19.786 14.1112 -0.587087
LeftLeg  39.7952 3.13726 3.17154
LeftFoot  -7.21233 0.181751 -3.84119
LeftToes  1.0277e-010 -6.71454e-011 3.04227e-011
3458
root  45.2935 39.915 -10.404 178.633 0.900909 -179.253
RightUpLeg  2.93665 -11.5653 -6.72574
RightLeg  6.57189 -12.0057 3.84407
RightFoot  -6.76835 -0.471182 10.6152
RightToes  -3.31784e-009 0 -3.6325e-017
Spine  9.97555 1.49736 8.75202
Spine1  -1.3248 3.48726 -6.915
HEad  -7.02843 46.6242 -19.0176
LeftShoulder1  0.942561 1.04929 -32.3297
LeftArm  11.5627 15.0437 -28.5362
LeftForeArm  5.46075 -5.47663 -17.176
LeftHand  0.206338 0.439951 -4.94537
RightShoulder  6.53259 9.64965 43.3536
RightArm  14.1291 -2.30389 16.6274
RightForeArm  11.3949 7.72473 14.9086
RightHand  0.425532 4.01746 4.97515
LeftUpLeg  -19.474 19.3094 -3.73358
LeftLeg  30.7745 3.95182 2.8819
LeftFoot  -7.8772 0.139155 -3.03848
LeftToes  1.0277e-010 -6.71454e-011 3.04227e-011
3459
root  45.4999 40.0264 -11.0305 179.171 -1.21231 -179.523
RightUpLeg  5.15041 -11.1573 -6.69156
RightLeg  3.6075 -14.3416 4.41559
RightFoot  -6.60037 -0.503389 11.0395
RightToes  -3.31784e-009 0 -3.6325e-017
Spine  8.97071 1.5955 8.32554
Spine1  -0.829927 3.57454 -7.48371
HEad  -6.62758 45.8077 -18.7727
LeftShoulder1  0.896604 1.16187 -32.2116
LeftArm  10.6883 17.4825 -28.0507
LeftForeArm  4.95604 -5.21348 -17.2475
LeftHand  0.226569 0.521763 -5.52767
RightShoulder  6.42159 9.47472 43.1829
RightArm  15.7536 -2.08497 16.9188
RightForeArm  9.84619 9.50293 14.1502
RightHand  0.414117 3.99638 4.84702
LeftUpLeg  -18.9915 26.6867 -7.16851
LeftLeg  21.4877 4.30423 2.19438
LeftFoot  -8.08315 0.139919 -3.21428
LeftToes  1.0277e-010 -6.71454e-011 3.04227e-011
3460
root  45.6277 40.091 -11.6644 179.508 -3.56714 -179.714
RightUpLeg  7.42153 -10.8074 -6.66523
RightLeg  1.02493 -16.8111 5.12285
RightFoot  -6.65133 -0.517623 11.4948
RightToes  -3.31784e-009 0 -3.6325e-017
Spine  8.04788 1.58784 7.70176
Spine1  -0.19709 3.56226 -7.72062
HEad  -6.0842 44.9656 -18.1364
LeftShoulder1  0.797659 1.38479 -31.5653
LeftArm  9.86468 20.463 -28.0617
LeftForeArm  4.66129 -6.29516 -16.7527
LeftHand  0.288243 0.098966 -6.38875
RightShoulder  6.30862 9.27381 43.086
RightArm  17.6481 -2.00881 16.9572
RightForeArm  7.74092 11.0622 13.4497
RightHand  0.405583 3.97529 4.75391
LeftUpLeg  -15.7105 23.5752 -6.40341
LeftLeg  12.2497 19.4608 -0.0971893
LeftFoot  -6.87395 0.135331 -2.41135
LeftToes  1.0277e-010 -6.71454e-011 3.04227e-011
